<svg width="40" height="45" viewBox="0 0 40 45" fill="none" xmlns="http://www.w3.org/2000/svg">
<path d="M35.0877 17.5179H0V44.7676H35.0877V17.5179Z" fill="#18731D"/>
<path d="M38.5965 42.6272H4.91242C4.54031 42.6268 4.18354 42.4626 3.92042 42.1707C3.65729 41.8788 3.50931 41.483 3.50891 41.0701V15.3776C3.50931 14.9647 3.65729 14.5689 3.92042 14.277C4.18354 13.9851 4.54031 13.8209 4.91242 13.8204H38.5965C38.9687 13.8209 39.3254 13.9851 39.5885 14.277C39.8517 14.5689 39.9997 14.9647 40.0001 15.3776V41.0701C39.9997 41.483 39.8517 41.8788 39.5885 42.1707C39.3254 42.4626 38.9687 42.6268 38.5965 42.6272ZM4.91242 15.3776V41.0701H38.5976L38.5965 15.3776H4.91242Z" fill="#050B0B"/>
<path d="M34.7369 14.4034H33.3334C33.3334 10.9964 32.1135 7.72886 29.942 5.31971C27.7706 2.91057 24.8254 1.55713 21.7545 1.55713C18.6836 1.55713 15.7384 2.91057 13.567 5.31971C11.3955 7.72886 10.1756 10.9964 10.1756 14.4034H8.77209C8.77209 10.5834 10.1399 6.91982 12.5746 4.21866C15.0092 1.51749 18.3114 0 21.7545 0C25.1977 0 28.4998 1.51749 30.9345 4.21866C33.3692 6.91982 34.7369 10.5834 34.7369 14.4034Z" fill="#050B0B"/>
<path d="M25.2642 25.1087C25.2649 24.4308 25.106 23.7645 24.8033 23.1756C24.5005 22.5868 24.0644 22.0958 23.5381 21.7514C23.0118 21.4069 22.4135 21.2209 21.8025 21.2117C21.1915 21.2025 20.5889 21.3704 20.0543 21.6989C19.5198 22.0274 19.0718 22.505 18.7548 23.0846C18.4378 23.6641 18.2627 24.3254 18.2468 25.003C18.2309 25.6807 18.3748 26.3512 18.6643 26.9482C18.9537 27.5452 19.3787 28.048 19.8972 28.4069V32.5852C19.8972 32.8558 19.9452 33.1238 20.0386 33.3738C20.1319 33.6239 20.2688 33.8511 20.4413 34.0424C20.6138 34.2338 20.8186 34.3856 21.044 34.4892C21.2694 34.5927 21.511 34.6461 21.755 34.6461C22.2477 34.6461 22.7202 34.4289 23.0687 34.0424C23.4171 33.6559 23.6128 33.1317 23.6128 32.5852V28.4069C24.1179 28.0579 24.5346 27.572 24.8235 26.995C25.1124 26.4179 25.2641 25.7688 25.2642 25.1087Z" fill="#FDFDFD"/>
</svg>
