<svg width="42" height="42" viewBox="0 0 42 42" fill="none" xmlns="http://www.w3.org/2000/svg">
<path d="M21 21C27.6281 21 33 16.2996 33 10.5C33 4.70039 27.6281 0 21 0C14.3719 0 9 4.70039 9 10.5C9 16.2996 14.3719 21 21 21ZM29.9812 23.6742L25.5 39.375L22.5 28.2188L25.5 23.625H16.5L19.5 28.2188L16.5 39.375L12.0187 23.6742C5.33437 23.9531 0 28.7355 0 34.65V38.0625C0 40.2363 2.01562 42 4.5 42H37.5C39.9844 42 42 40.2363 42 38.0625V34.65C42 28.7355 36.6656 23.9531 29.9812 23.6742V23.6742Z" fill="#18731D"/>
</svg>
