<svg width="19" height="20" viewBox="0 0 19 20" fill="none" xmlns="http://www.w3.org/2000/svg">
<path d="M18.7573 12.4032L17.0527 11.4113C17.2247 10.4758 17.2247 9.51613 17.0527 8.58065L18.7573 7.58872C18.9534 7.47582 19.0414 7.24195 18.9774 7.0242C18.5332 5.58873 17.7769 4.29034 16.7886 3.2097C16.6365 3.04438 16.3884 3.00406 16.1964 3.11696L14.4917 4.10889C13.7754 3.48793 12.9511 3.00809 12.0588 2.69358V0.713745C12.0588 0.487939 11.9027 0.290359 11.6827 0.241972C10.2141 -0.0886715 8.70953 -0.0725426 7.313 0.241972C7.09292 0.290359 6.93686 0.487939 6.93686 0.713745V2.69761C6.04853 3.01616 5.22421 3.49599 4.50394 4.11293L2.8033 3.12099C2.60723 3.00809 2.36314 3.04438 2.21108 3.21374C1.22271 4.29034 0.466421 5.58873 0.0222532 7.02824C-0.0457725 7.24598 0.0462622 7.47985 0.242336 7.59275L1.94698 8.58468C1.77491 9.52016 1.77491 10.4798 1.94698 11.4153L0.242336 12.4072C0.0462622 12.5202 -0.041771 12.754 0.0222532 12.9718C0.466421 14.4072 1.22271 15.7056 2.21108 16.7863C2.36314 16.9516 2.61123 16.9919 2.8033 16.879L4.50795 15.8871C5.22422 16.508 6.04853 16.9879 6.94086 17.3024V19.2863C6.94086 19.5121 7.09692 19.7096 7.317 19.758C8.78556 20.0887 10.2901 20.0725 11.6867 19.758C11.9067 19.7096 12.0628 19.5121 12.0628 19.2863V17.3024C12.9511 16.9838 13.7754 16.504 14.4957 15.8871L16.2004 16.879C16.3964 16.9919 16.6405 16.9556 16.7926 16.7863C17.7809 15.7097 18.5372 14.4113 18.9814 12.9718C19.0414 12.75 18.9534 12.5161 18.7573 12.4032ZM9.49783 13.2218C7.73316 13.2218 6.29662 11.7742 6.29662 9.99597C6.29662 8.21775 7.73316 6.77017 9.49783 6.77017C11.2625 6.77017 12.699 8.21775 12.699 9.99597C12.699 11.7742 11.2625 13.2218 9.49783 13.2218Z" fill="#18731D"/>
</svg>
