<svg width="24" height="24" viewBox="0 0 24 24" fill="none" xmlns="http://www.w3.org/2000/svg">
<path d="M5.33333 7.99988H18.6667V15.9999H5.33333V7.99988ZM22 11.9999C22 13.1045 22.8954 13.9999 24 13.9999V17.9999C24 19.1045 23.1046 19.9999 22 19.9999H2C0.895417 19.9999 0 19.1045 0 17.9999V13.9999C1.10458 13.9999 2 13.1045 2 11.9999C2 10.8953 1.10458 9.99988 0 9.99988V5.99988C0 4.89529 0.895417 3.99988 2 3.99988H22C23.1046 3.99988 24 4.89529 24 5.99988V9.99988C22.8954 9.99988 22 10.8953 22 11.9999ZM20 7.66654C20 7.11425 19.5523 6.66654 19 6.66654H5C4.44771 6.66654 4 7.11425 4 7.66654V16.3332C4 16.8855 4.44771 17.3332 5 17.3332H19C19.5523 17.3332 20 16.8855 20 16.3332V7.66654Z" fill="#18731D"/>
</svg>
