<svg width="21" height="20" viewBox="0 0 21 20" fill="none" xmlns="http://www.w3.org/2000/svg">
<path d="M10.5 0C4.70087 0 0 4.47702 0 10C0 15.523 4.70087 20 10.5 20C16.2991 20 21 15.523 21 10C21 4.47702 16.2991 0 10.5 0ZM13.9841 14.4194C13.8189 14.5758 13.6458 14.7399 13.5052 14.8742C13.3786 14.9952 13.2893 15.1444 13.244 15.306C13.18 15.5343 13.1284 15.7649 13.042 15.9863L12.3057 17.8754C11.7232 17.9964 11.1203 18.0645 10.5 18.0645V16.9605C10.5716 16.4516 10.1765 15.4984 9.54187 14.894C9.28784 14.652 9.14516 14.3238 9.14516 13.9815V12.6907C9.14516 12.2214 8.8797 11.7899 8.44827 11.5629C7.83986 11.2423 6.97446 10.7944 6.38171 10.5101C5.89567 10.277 5.44603 9.98024 5.04169 9.63306L5.00782 9.60403C4.71868 9.35546 4.46196 9.07468 4.24319 8.76774C3.84605 8.2125 3.19911 7.29919 2.77869 6.70565C3.64536 4.87097 5.20724 3.39758 7.14804 2.59718L8.1646 3.08145C8.61508 3.29597 9.14516 2.98427 9.14516 2.50444V2.04879C9.48345 1.99677 9.82766 1.96371 10.1778 1.95121L11.376 3.09234C11.6406 3.34435 11.6406 3.75282 11.376 4.00484L11.1774 4.19355L10.7396 4.61048C10.6075 4.73629 10.6075 4.94073 10.7396 5.06653L10.9382 5.25564C11.0703 5.38145 11.0703 5.58589 10.9382 5.71169L10.5995 6.03427C10.5359 6.09472 10.4497 6.12866 10.3599 6.12863H9.97923C9.89117 6.12863 9.80649 6.16129 9.74298 6.22016L9.32298 6.60927C9.2715 6.65702 9.23728 6.71911 9.22525 6.78659C9.21323 6.85406 9.22403 6.92343 9.25609 6.98468L9.91615 8.24234C10.0288 8.45685 9.86492 8.70927 9.61343 8.70927H9.37464C9.29292 8.70927 9.21417 8.68105 9.15278 8.63024L8.75988 8.30524C8.67097 8.23178 8.56351 8.18163 8.44808 8.15971C8.33264 8.13779 8.21321 8.14487 8.10151 8.18024L6.78181 8.59919C6.68106 8.63119 6.59343 8.69257 6.53135 8.77464C6.46927 8.85671 6.43587 8.9553 6.43591 9.05645C6.43591 9.23911 6.54429 9.40564 6.71577 9.4875L7.18488 9.71089C7.58329 9.90081 8.02276 9.9996 8.46817 9.9996C8.91357 9.9996 9.4246 11.1 9.823 11.2899H12.6491C13.0086 11.2899 13.3528 11.4258 13.6072 11.6677L14.1869 12.2198C14.429 12.4505 14.565 12.7633 14.5649 13.0895C14.5649 13.3367 14.5135 13.5814 14.4138 13.8096C14.3141 14.0378 14.1681 14.2451 13.9841 14.4194ZM17.6552 10.7359C17.4101 10.6774 17.1963 10.5343 17.0562 10.3339L16.2949 9.24637C16.1835 9.08748 16.1241 8.90072 16.1241 8.70968C16.1241 8.51863 16.1835 8.33187 16.2949 8.17298L17.1243 6.98831C17.2225 6.84839 17.3572 6.73468 17.5155 6.65968L18.0651 6.39798C18.6375 7.48347 18.9677 8.70444 18.9677 10C18.9677 10.3496 18.9364 10.6919 18.8907 11.0298L17.6552 10.7359Z" fill="#288412"/>
</svg>
