<svg width="20" height="20" viewBox="0 0 20 20" fill="none" xmlns="http://www.w3.org/2000/svg">
<path d="M18.5021 3.44751H1.49785C0.670586 3.44751 0 4.1181 0 4.94536V15.0531C0 15.8804 0.670586 16.551 1.49785 16.551H18.5021C19.3294 16.551 20 15.8804 20 15.0531V4.94536C20 4.1181 19.3294 3.44751 18.5021 3.44751Z" fill="#41479B"/>
<path d="M19.9793 4.69778C19.8612 3.98845 19.245 3.44751 18.5021 3.44751H18.1124L11.7241 7.63294V3.44755H8.27586V7.63298L1.88758 3.44755H1.49785C0.755 3.44755 0.138789 3.98845 0.0207422 4.69782L5.48082 8.27517H0V11.7234H5.48082L0.0207422 15.3007C0.138789 16.01 0.755 16.551 1.49785 16.551H1.88758L8.27586 12.3656V16.551H11.7241V12.3656L18.1124 16.551H18.5021C19.245 16.551 19.8612 16.0101 19.9793 15.3007L14.5192 11.7234H20V8.27509H14.5192L19.9793 4.69778Z" fill="#F5F5F5"/>
<path d="M11.0345 3.44751H8.96551V8.96474H0V11.0337H8.96551V16.5509H11.0345V11.0337H20V8.96474H11.0345V3.44751Z" fill="#FF4B55"/>
<path d="M0.969492 16.4503L8.25789 11.7192H6.99117L0.361328 16.0228C0.523555 16.2122 0.732031 16.3605 0.969492 16.4503Z" fill="#FF4B55"/>
<path d="M13.5323 11.7192H12.2656L19.3248 16.3015C19.5224 16.1717 19.6872 15.9965 19.8048 15.7907L13.5323 11.7192Z" fill="#FF4B55"/>
<path d="M0.158691 4.27328L6.32002 8.27291H7.58674L0.60502 3.74072C0.417559 3.88026 0.26416 4.06269 0.158691 4.27328Z" fill="#FF4B55"/>
<path d="M12.9928 8.27126L19.6348 3.95974C19.4708 3.77103 19.2606 3.62353 19.0215 3.53552L11.7261 8.27126H12.9928Z" fill="#FF4B55"/>
</svg>
