<svg width="25" height="25" viewBox="0 0 25 25" fill="none" xmlns="http://www.w3.org/2000/svg">
<g clip-path="url(#clip0_301_1047)">
<path d="M12.169 7.23828L4.16683 14.6528V22.6553C4.16683 22.8625 4.23999 23.0612 4.37023 23.2077C4.50046 23.3542 4.6771 23.4365 4.86127 23.4365L9.72499 23.4224C9.90856 23.4213 10.0843 23.3386 10.2138 23.1922C10.3433 23.0458 10.416 22.8476 10.416 22.6411V17.9678C10.416 17.7606 10.4891 17.5619 10.6194 17.4153C10.7496 17.2688 10.9262 17.1865 11.1104 17.1865H13.8882C14.0724 17.1865 14.249 17.2688 14.3792 17.4153C14.5095 17.5619 14.5826 17.7606 14.5826 17.9678V22.6377C14.5823 22.7405 14.6001 22.8424 14.6349 22.9374C14.6696 23.0325 14.7207 23.1189 14.7853 23.1917C14.8498 23.2645 14.9264 23.3223 15.0108 23.3617C15.0952 23.4011 15.1857 23.4214 15.2771 23.4214L20.1391 23.4365C20.3232 23.4365 20.4999 23.3542 20.6301 23.2077C20.7603 23.0612 20.8335 22.8625 20.8335 22.6553V14.6475L12.8331 7.23828C12.739 7.15299 12.6218 7.10648 12.501 7.10648C12.3802 7.10648 12.2631 7.15299 12.169 7.23828ZM24.8092 12.2778L21.1807 8.91309V2.1499C21.1807 1.9945 21.1258 1.84547 21.0282 1.73558C20.9305 1.6257 20.798 1.56396 20.6599 1.56396H18.2293C18.0912 1.56396 17.9587 1.6257 17.861 1.73558C17.7634 1.84547 17.7085 1.9945 17.7085 2.1499V5.69531L13.8226 2.09863C13.4497 1.75341 12.9818 1.56465 12.4989 1.56465C12.0159 1.56465 11.548 1.75341 11.1751 2.09863L0.18853 12.2778C0.13579 12.3269 0.0921566 12.3871 0.0601219 12.4551C0.0280872 12.5232 0.00827941 12.5976 0.00183036 12.6742C-0.00461869 12.7509 0.00241739 12.8282 0.0225366 12.9018C0.0426557 12.9753 0.0754637 13.0437 0.119086 13.103L1.22586 14.6167C1.26936 14.6762 1.32287 14.7255 1.38332 14.7617C1.44377 14.7979 1.50998 14.8204 1.57815 14.8278C1.64633 14.8351 1.71513 14.8273 1.78061 14.8048C1.8461 14.7822 1.90699 14.7454 1.9598 14.6963L12.169 5.23633C12.2631 5.15104 12.3802 5.10453 12.501 5.10453C12.6218 5.10453 12.739 5.15104 12.8331 5.23633L23.0427 14.6963C23.0954 14.7454 23.1562 14.7823 23.2216 14.8049C23.287 14.8275 23.3557 14.8355 23.4238 14.8282C23.492 14.8209 23.5581 14.7987 23.6186 14.7626C23.6791 14.7266 23.7326 14.6775 23.7762 14.6182L24.883 13.1045C24.9266 13.0448 24.9592 12.9761 24.9791 12.9022C24.999 12.8283 25.0057 12.7507 24.9988 12.6739C24.992 12.5971 24.9717 12.5226 24.9391 12.4546C24.9066 12.3866 24.8624 12.3265 24.8092 12.2778Z" fill="black"/>
</g>
<defs>
<clipPath id="clip0_301_1047">
<rect width="25" height="25" fill="white"/>
</clipPath>
</defs>
</svg>
