<svg width="25" height="25" viewBox="0 0 25 25" fill="none" xmlns="http://www.w3.org/2000/svg">
<path d="M12.5 12.5C16.4453 12.5 19.6429 9.70215 19.6429 6.25C19.6429 2.79785 16.4453 0 12.5 0C8.55469 0 5.35714 2.79785 5.35714 6.25C5.35714 9.70215 8.55469 12.5 12.5 12.5ZM17.846 14.0918L15.1786 23.4375L13.3929 16.7969L15.1786 14.0625H9.82143L11.6071 16.7969L9.82143 23.4375L7.15402 14.0918C3.17522 14.2578 0 17.1045 0 20.625V22.6562C0 23.9502 1.19978 25 2.67857 25H22.3214C23.8002 25 25 23.9502 25 22.6562V20.625C25 17.1045 21.8248 14.2578 17.846 14.0918Z" fill="black"/>
</svg>
