<svg width="25" height="25" viewBox="0 0 25 25" fill="none" xmlns="http://www.w3.org/2000/svg">
<g clip-path="url(#clip0_301_6347)">
<path d="M12.5 0.390625C5.59627 0.390625 0 5.81201 0 12.5C0 19.188 5.59627 24.6094 12.5 24.6094C19.4037 24.6094 25 19.188 25 12.5C25 5.81201 19.4037 0.390625 12.5 0.390625ZM16.6477 17.8516C16.4511 18.041 16.245 18.2397 16.0776 18.4023C15.9269 18.5488 15.8206 18.7295 15.7666 18.9253C15.6905 19.2017 15.629 19.481 15.5262 19.749L14.6497 22.0366C13.9561 22.1831 13.2384 22.2656 12.5 22.2656V20.9287C12.5852 20.3125 12.1149 19.1582 11.3594 18.4263C11.057 18.1333 10.8871 17.7358 10.8871 17.3213V15.7583C10.8871 15.1899 10.5711 14.6675 10.0575 14.3926C9.33317 14.0044 8.30292 13.4619 7.59728 13.1177C7.01865 12.8354 6.48337 12.4761 6.00202 12.0557L5.96169 12.0205C5.61747 11.7195 5.31185 11.3795 5.05141 11.0078C4.57863 10.3354 3.80847 9.22949 3.30796 8.51074C4.33972 6.28906 6.19909 4.50488 8.50958 3.53564L9.71976 4.12207C10.256 4.38184 10.8871 4.00439 10.8871 3.42334V2.87158C11.2898 2.80859 11.6996 2.76855 12.1164 2.75342L13.5428 4.13525C13.8579 4.44043 13.8579 4.93506 13.5428 5.24023L13.3065 5.46875L12.7853 5.97363C12.628 6.12598 12.628 6.37353 12.7853 6.52588L13.0217 6.75488C13.1789 6.90723 13.1789 7.15478 13.0217 7.30713L12.6184 7.69775C12.5427 7.77096 12.4401 7.81205 12.3332 7.81201H11.88C11.7752 7.81201 11.6744 7.85156 11.5988 7.92285L11.0988 8.39404C11.0375 8.45186 10.9968 8.52705 10.9824 8.60876C10.9681 8.69046 10.981 8.77446 11.0192 8.84863L11.8049 10.3716C11.939 10.6313 11.744 10.937 11.4446 10.937H11.1603C11.063 10.937 10.9693 10.9028 10.8962 10.8413L10.4284 10.4478C10.3226 10.3588 10.1947 10.2981 10.0572 10.2715C9.91981 10.245 9.77763 10.2536 9.64466 10.2964L8.07359 10.8037C7.95364 10.8425 7.84933 10.9168 7.77542 11.0162C7.70151 11.1155 7.66176 11.2349 7.66179 11.3574C7.66179 11.5786 7.79083 11.7803 7.99496 11.8794L8.55343 12.1499C9.02772 12.3799 9.55091 12.4995 10.0811 12.4995C10.6114 12.4995 11.2198 13.832 11.6941 14.062H15.0585C15.4864 14.062 15.8962 14.2266 16.1991 14.5195L16.8891 15.188C17.1774 15.4674 17.3393 15.8462 17.3392 16.2412C17.3391 16.5405 17.278 16.8369 17.1593 17.1132C17.0406 17.3896 16.8668 17.6405 16.6477 17.8516ZM21.0181 13.3911C20.7263 13.3203 20.4718 13.147 20.3049 12.9043L19.3987 11.5874C19.2661 11.395 19.1953 11.1688 19.1953 10.9375C19.1953 10.7062 19.2661 10.48 19.3987 10.2876L20.3861 8.85303C20.503 8.68359 20.6633 8.5459 20.8518 8.45508L21.506 8.13818C22.1875 9.45264 22.5806 10.9312 22.5806 12.5C22.5806 12.9233 22.5433 13.3379 22.4889 13.7471L21.0181 13.3911Z" fill="black"/>
</g>
<defs>
<clipPath id="clip0_301_6347">
<rect width="25" height="25" fill="white"/>
</clipPath>
</defs>
</svg>
