<svg width="25" height="25" viewBox="0 0 25 25" fill="none" xmlns="http://www.w3.org/2000/svg">
<path d="M24.8565 14.2622L21.7131 20.3245C21.4685 20.7963 21.1182 21.1877 20.6972 21.4597C20.2763 21.7317 19.7992 21.8749 19.3138 21.8749H1.95421C1.15026 21.8749 0.649349 20.8938 1.05443 20.1125L4.19783 14.0503C4.44246 13.5785 4.79272 13.1871 5.21372 12.9151C5.63471 12.643 6.11173 12.4999 6.59722 12.4999H23.9568C24.7607 12.4999 25.2616 13.481 24.8565 14.2622ZM6.59722 10.9374H20.8333V8.59363C20.8333 7.29919 19.9006 6.24988 18.75 6.24988H11.8056L9.02778 3.12488H2.08333C0.932726 3.12488 0 4.17419 0 5.46863V19.0451L2.99813 13.263C3.74193 11.8285 5.12105 10.9374 6.59722 10.9374Z" fill="#18731D"/>
</svg>
