<svg width="25" height="19" viewBox="0 0 25 19" fill="none" xmlns="http://www.w3.org/2000/svg">
<path d="M24.8565 11.2622L21.7131 17.3245C21.4685 17.7963 21.1182 18.1877 20.6972 18.4597C20.2763 18.7317 19.7992 18.8749 19.3138 18.8749H1.95421C1.15026 18.8749 0.649349 17.8938 1.05443 17.1125L4.19783 11.0503C4.44246 10.5785 4.79272 10.1871 5.21372 9.91505C5.63471 9.64302 6.11173 9.49988 6.59722 9.49988H23.9568C24.7607 9.49988 25.2616 10.481 24.8565 11.2622ZM6.59722 7.93738H20.8333V5.59363C20.8333 4.29919 19.9006 3.24988 18.75 3.24988H11.8056L9.02778 0.124878H2.08333C0.932726 0.124878 0 1.17419 0 2.46863V16.0451L2.99813 10.263C3.74193 8.82849 5.12105 7.93738 6.59722 7.93738Z" fill="black"/>
</svg>
