<svg width="43" height="41" viewBox="0 0 43 41" fill="none" xmlns="http://www.w3.org/2000/svg">
<path fill-rule="evenodd" clip-rule="evenodd" d="M21.4411 41C10.0728 41 0.856934 31.8218 0.856934 20.5C0.856934 9.17816 10.0728 2.58683e-07 21.4411 2.58683e-07C26.9006 -0.000862953 32.1368 2.15867 35.9973 6.00335C39.8577 9.84803 42.0261 15.0628 42.0253 20.5C42.0253 31.8218 32.8094 41 21.4411 41ZM6.2263 20.4999C6.2263 28.8684 13.0382 35.6525 21.4411 35.6525C29.844 35.6525 36.6559 28.8684 36.6559 20.4999C36.6559 12.1314 29.844 5.34731 21.4411 5.34731C13.0382 5.34731 6.2263 12.1314 6.2263 20.4999Z" fill="#C3E1FF"/>
<path d="M21.4412 0V5.3474C29.8441 5.3474 36.656 12.1314 36.656 20.5H42.0221C42.0221 9.17943 32.8082 0.00179948 21.4412 0H21.4412Z" fill="#ADD4FC"/>
<path d="M36.6526 20.5C36.6553 25.4758 34.2012 30.1349 30.089 32.961L33.1418 37.3601C38.7052 33.5359 42.0253 27.2323 42.022 20.5H36.6526Z" fill="#78BAFF"/>
<path d="M21.4412 35.6526V41C25.6242 41.0057 29.7087 39.7355 33.1451 37.3601L30.0923 32.9609C27.552 34.7164 24.5331 35.6556 21.4412 35.6526Z" fill="#419EFF"/>
</svg>
